:FULLY-SPECIFIED
:DEGREES
188
root -0.567874014377594 -0.567874014377594 -0.567874014377594 -0.5678755879732001 -0.5678755879732001 -0.5678755879732001
lhipjoint -9.671654586443837e-08 -1.5341245206083327e-07 1.0672170578144923e-06
lfemur -31.68771667307411 4.86558045102014 -15.637907642493662
ltibia 34.725969231003376 -2.1410303315939657e-06 1.2922706644088554e-06
lfoot -14.358375861876615 -2.1064180088840323e-07 3.42778657058814
ltoes -55.738202684185104 -4.72276137318401e-07 1.678357026747589e-06
rhipjoint 1.1005675908711953e-07 6.870210827458292e-07 -1.494104084495789e-06
rfemur -26.144044859652038 2.937663508248838 10.55721849441361
rtibia 27.6036477475473 1.7797610486571307e-06 -3.816552848009434e-06
rfoot -23.026910446998297 -4.833780542673303e-07 -11.901949553300303
rtoes -11.087459740060039 8.312691608808059e-07 -9.844676761115453e-07
lowerback 31.42960382433933 0.47333221620358945 -0.06602054848638375
upperback 2.165566117865903 0.9278266639545779 1.7369173193776541
thorax -14.005063836490196 0.48596795944640725 1.6395735700483383
lowerneck -11.457395592112624 -2.029057957114028 -1.9248847656666397
upperneck 23.5797988923852 -3.0151462414105206 2.3060364286666197
head 9.370881229926802 -1.331763944747426 0.7745436119620046
lclavicle -1.4085775951116125e-07 5.4855408257763046e-08 -1.0938974842598547e-06
lhumerus 57.33442472340626 -18.27775355858879 67.04385964747037
lradius 37.57599885088001 -3.1907813097641074e-06 2.1145406366517413e-06
lwrist -4.2729128790352927e-07 -27.058796727266213 1.0302917721291053e-07
lhand -4.562975323145072 2.6246558075710764e-07 -26.656099019086014
lfingers 7.125022823272814 9.845282338726802e-08 3.18924141240953e-07
lthumb 21.213298854421275 -1.2803152392500461e-07 2.20318914769186
rclavicle 1.398304276268298e-07 4.3880174074018323e-07 -1.3740421654916584e-06
rhumerus 51.41824463793544 14.51839865639355 -57.68344055980474
rradius 52.74404241244286 -2.9410423241760953e-06 -5.604918187635234e-06
rwrist 4.3229422408415906e-07 42.5005891481213 9.663653837531521e-07
rhand -6.972260092956778 2.0321462048512455e-07 -36.68780446630613
rfingers 7.125022396385991 5.1024341088409163e-08 -3.1892353057445414e-07
rthumb 18.897492480477187 1.5447771905696147e-06 -65.78980959509936
189
root -0.567874014377594 -0.567874014377594 -0.567874014377594 -0.5678755879732001 -0.5678755879732001 -0.5678755879732001
lhipjoint -9.671654586443837e-08 -1.5341245206083327e-07 1.0672170578144923e-06
lfemur -28.572113930341747 3.2998018455902063 -15.460652280700783
ltibia 30.35729144540401 -1.2107082148241555e-06 5.604374490895767e-07
lfoot -13.593704594668775 1.683357164040099e-07 4.928951799913165
ltoes -55.2140368918054 -9.249127311453265e-07 1.8815098935830182e-06
rhipjoint 1.1005675908711953e-07 6.870210827458292e-07 -1.494104084495789e-06
rfemur -20.428142996118922 3.6483306041235015 10.05462158565916
rtibia 17.70833093276858 1.0650808446237967e-06 -1.4101312324624138e-06
rfoot -20.098893727178456 1.5501641850891405e-06 -14.96799585850964
rtoes -9.544028232933917 9.4734057787051e-07 -1.0394199258982496e-06
lowerback 32.55102867850163 0.19731049140311513 -0.14305142861589418
upperback 1.7123008907221051 0.59687667791078 2.0587014049987062
thorax -14.865295426602037 0.34544386090597645 2.080858965553051
lowerneck -11.457395592112624 -2.029057957114028 -1.9248847656666397
upperneck 23.5797988923852 -3.0151462414105206 2.3060364286666197
head 9.370881229926802 -1.331763944747426 0.7745436119620046
lclavicle -1.4085775951116125e-07 5.4855408257763046e-08 -1.0938974842598547e-06
lhumerus 67.51081236026747 -14.093563451339698 70.26156859565255
lradius 30.82177504481614 -9.047378366898672e-07 2.820177582281489e-06
lwrist -5.401042902331677e-07 -32.229412145958655 1.3023282398670168e-07
lhand -4.562975323145072 2.6246558075710764e-07 -26.656099019086014
lfingers 7.125022823272814 9.845282338726802e-08 3.18924141240953e-07
lthumb 21.213298854421275 -1.2803152392500461e-07 2.20318914769186
rclavicle 1.398304276268298e-07 4.3880174074018323e-07 -1.3740421654916584e-06
rhumerus 62.642192048179844 12.716385578800855 -53.74663222033069
rradius 45.338396144478196 -2.21048245028465e-06 -3.588488044909286e-06
rwrist 3.8932345456021476e-07 39.99510842092595 8.70302047486974e-07
rhand -6.972260092956778 2.0321462048512455e-07 -36.68780446630613
rfingers 7.125022396385991 5.1024341088409163e-08 -3.1892353057445414e-07
rthumb 18.897492480477187 1.5447771905696147e-06 -65.78980959509936
190
root -0.567874014377594 -0.567874014377594 -0.567874014377594 -0.5678755879732001 -0.5678755879732001 -0.5678755879732001
lhipjoint -9.671654586443837e-08 -1.5341245206083327e-07 1.0672170578144923e-06
lfemur -25.550521911345438 1.2973000908560113 -15.205884517112015
ltibia 26.3534191860169 -1.6903863425527582e-06 -5.292304572215554e-07
lfoot -13.320775358076943 2.193429791860015e-06 6.841393668459334
ltoes -54.53839457910774 -1.8119997615749438e-06 2.291895083021634e-06
rhipjoint 1.1005675908711953e-07 6.870210827458292e-07 -1.494104084495789e-06
rfemur -15.227459377152792 3.729473678350076 9.81183738896918
rtibia 8.93330174565535 5.469458923529327e-07 -1.5885197407703442e-06
rfoot -17.18343260260039 1.5020867933019506e-07 -16.983272201425876
rtoes -7.846889294952183 -6.126080111963104e-07 -7.22675762280409e-07
lowerback 32.76175025968028 0.01850982765847443 -0.383719947530037
upperback 1.3467490596213167 0.3194206267248163 2.308590705972793
thorax -15.280427494166242 0.23695297604693524 2.5423885081491524
lowerneck -11.457395592112624 -2.029057957114028 -1.9248847656666397
upperneck 23.5797988923852 -3.0151462414105206 2.3060364286666197
head 9.370881229926802 -1.331763944747426 0.7745436119620046
lclavicle -1.4085775951116125e-07 5.4855408257763046e-08 -1.0938974842598547e-06
lhumerus 74.57559803770265 -8.260548602976604 74.85883232220473
lradius 25.773840068900885 7.235746633667029e-07 2.446303125031078e-06
lwrist -7.47859445137112e-07 -39.887949583037624 1.8032663655306442e-07
lhand -4.562975323145072 2.6246558075710764e-07 -26.656099019086014
lfingers 7.125022823272814 9.845282338726802e-08 3.18924141240953e-07
lthumb 21.213298854421275 -1.2803152392500461e-07 2.20318914769186
rclavicle 1.398304276268298e-07 4.3880174074018323e-07 -1.3740421654916584e-06
rhumerus 70.48724487601893 9.524342773972295 -52.163558295261815
rradius 39.258455443467156 -7.062850663405175e-07 -3.6069753624951985e-06
rwrist 3.815735114678611e-07 39.51410942410073 8.529748435822349e-07
rhand -6.972260092956778 2.0321462048512455e-07 -36.68780446630613
rfingers 7.125022396385991 5.1024341088409163e-08 -3.1892353057445414e-07
rthumb 18.897492480477187 1.5447771905696147e-06 -65.78980959509936
191
root -0.567874014377594 -0.567874014377594 -0.567874014377594 -0.5678755879732001 -0.5678755879732001 -0.5678755879732001
lhipjoint -9.671654586443837e-08 -1.5341245206083327e-07 1.0672170578144923e-06
lfemur -22.951278054771453 -0.5954419112982543 -14.9131579772109
ltibia 23.284015842830502 -4.840154883143705e-07 -3.1466769396628147e-07
lfoot -13.360739648684335 2.070199735059897e-06 8.677018533844485
ltoes -53.77345095810675 -5.631947101095935e-07 2.671145848127841e-06
rhipjoint 1.1005675908711953e-07 6.870210827458292e-07 -1.494104084495789e-06
rfemur -11.333744408699651 3.5616012889295026 9.809527077482421
rtibia 2.8487767070507615 1.4134792115423097e-07 -1.677484486098495e-06
rfoot -14.908030212691514 2.843494864762234e-06 -17.966788706056445
rtoes -6.443244866266365 -4.905575585164541e-07 -5.057343512343995e-07
lowerback 31.966241542143475 -0.029438138668128097 -0.7285762254044073
upperback 1.2248168427233666 0.14537375963476462 2.4300041486589397
thorax -15.074893441662217 0.18298080788528126 2.926599882453887
lowerneck -11.457395592112624 -2.029057957114028 -1.9248847656666397
upperneck 23.5797988923852 -3.0151462414105206 2.3060364286666197
head 9.370881229926802 -1.331763944747426 0.7745436119620046
lclavicle -1.4085775951116125e-07 5.4855408257763046e-08 -1.0938974842598547e-06
lhumerus 78.24772630155493 -1.4666212274325678 78.88126049801947
lradius 22.45446546247036 -1.3966349939492788e-07 1.2983056778614015e-06
lwrist -1.0481499123879305e-06 -47.90919738580095 2.5273494087576323e-07
lhand -4.562975323145072 2.6246558075710764e-07 -26.656099019086014
lfingers 7.125022823272814 9.845282338726802e-08 3.18924141240953e-07
lthumb 21.213298854421275 -1.2803152392500461e-07 2.20318914769186
rclavicle 1.398304276268298e-07 4.3880174074018323e-07 -1.3740421654916584e-06
rhumerus 74.18873612311312 4.707798812324614 -52.17055240897191
rradius 34.82774929492032 -2.6028886002198887e-07 -3.882719377380854e-06
rwrist 4.005080404864246e-07 40.67286809226632 8.953044641712711e-07
rhand -6.972260092956778 2.0321462048512455e-07 -36.68780446630613
rfingers 7.125022396385991 5.1024341088409163e-08 -3.1892353057445414e-07
rthumb 18.897492480477187 1.5447771905696147e-06 -65.78980959509936
